<svg width="378" height="64" viewBox="0 0 378 64" fill="none" xmlns="http://www.w3.org/2000/svg" xmlns:xlink="http://www.w3.org/1999/xlink">
<mask id="mask_0_1156_840" style="mask-type:alpha" maskUnits="userSpaceOnUse" x="0.185547" y="0" width="188.603668" height="32">
</mask>
<mask id="mask_0_1156_845" style="mask-type:alpha" maskUnits="userSpaceOnUse" x="0.185547" y="0" width="188.603668" height="32">
</mask>
<mask id="mask_0_1156_850" style="mask-type:alpha" maskUnits="userSpaceOnUse" x="0.185547" y="0" width="188.603668" height="32">
</mask>
<g mask="url(#mask_0_1156_840)">
<path d="M148.1,7.005C148.1,3.844 150.663,1.266 153.839,1.266C156.999,1.266 159.578,3.829 159.578,7.005C159.467,10.165 156.8,12.633 153.632,12.523C150.627,12.412 148.217,10.003 148.1,7.005Z" fill="#191825" fill-opacity="0.5"/>
</g>
<g mask="url(#mask_0_1156_845)">
<path d="M238.548,45.238C238.548,42.056 241.112,39.484 244.265,39.484C247.44,39.484 250.012,42.056 250.012,45.238C250.012,48.414 247.44,50.985 244.265,50.985C241.112,50.985 238.548,48.406 238.548,45.238Z" fill="#191825" fill-opacity="0.5"/>
</g>
<g mask="url(#mask_0_1156_850)">
<path d="M54.041,42.755C49.112,42.755 45.672,38.836 45.672,33.229C45.672,27.63 49.105,23.71 54.041,23.71C59,23.71 62.477,27.63 62.477,33.229C62.47,38.924 59.081,42.755 54.041,42.755ZM54.041,15.341C43.602,15.341 36.021,22.863 36.021,33.229C36.021,43.595 43.609,51.117 54.041,51.117C64.532,51.117 72.135,43.595 72.135,33.236C72.135,22.863 64.518,15.341 54.041,15.341ZM137.005,34.128C136.644,33.428 136.18,32.772 135.642,32.198L135.325,31.866L135.657,31.549C136.135,31.041 136.629,30.444 137.093,29.752L146.31,16.048L135.119,16.048L128.193,26.768C127.803,27.35 127.015,27.623 125.829,27.623L124.245,27.623L124.245,7.355C124.245,3.303 121.725,2.758 118.992,2.758L114.321,2.758L114.328,50.587L124.237,50.587L124.237,36.25L125.165,36.25C126.293,36.25 127.059,36.382 127.42,36.994L132.886,47.315C134.419,50.115 135.937,50.594 138.795,50.594L146.413,50.594L140.747,41.245L137.005,34.128ZM185.143,15.268C180.096,15.268 176.877,17.507 175.079,19.408L174.482,20.019L174.269,19.194C173.738,17.161 171.955,16.056 169.266,16.056L164.824,16.056L164.853,50.594L174.703,50.594L174.703,34.68C174.703,33.119 174.902,31.778 175.315,30.54C176.413,26.812 179.47,24.484 183.286,24.484C186.359,24.484 187.567,26.105 187.567,30.304L187.567,45.348C187.567,48.921 189.217,50.601 192.805,50.601L197.483,50.601L197.461,28.632C197.461,19.872 193.195,15.268 185.143,15.268ZM153.964,16.048L149.294,16.048L149.323,42.755L149.323,50.587L154.303,50.587L154.48,50.594L156.808,50.587L159.114,50.587L159.114,50.579L159.136,50.579L159.158,21.301C159.144,17.765 157.457,16.048 153.964,16.048ZM92.712,42.755C87.784,42.755 84.343,38.836 84.343,33.229C84.343,27.63 87.784,23.71 92.712,23.71C97.663,23.71 101.148,27.63 101.148,33.229C101.141,38.924 97.752,42.755 92.712,42.755ZM92.712,15.341C82.266,15.341 74.677,22.863 74.677,33.229C74.677,43.595 82.266,51.117 92.712,51.117C103.181,51.117 110.807,43.595 110.807,33.236C110.807,22.863 103.189,15.341 92.712,15.341Z" fill="#191825" fill-opacity="0.5"/>
</g>
</svg>
