<svg width="378" height="64" viewBox="0 0 378 64" fill="none" xmlns="http://www.w3.org/2000/svg" xmlns:xlink="http://www.w3.org/1999/xlink">
<mask id="mask_0_1156_866" style="mask-type:alpha" maskUnits="userSpaceOnUse" x="0.185547" y="0" width="188.603668" height="32">
</mask>
<mask id="mask_0_1156_871" style="mask-type:alpha" maskUnits="userSpaceOnUse" x="0.185547" y="0" width="188.603668" height="32">
</mask>
<g mask="url(#mask_0_1156_866)">
<path d="M303.771,42.75C298.842,42.75 295.402,38.83 295.402,33.224C295.402,27.625 298.842,23.705 303.771,23.705C308.729,23.705 312.206,27.625 312.206,33.224C312.206,38.919 308.81,42.75 303.771,42.75ZM303.771,15.336C293.324,15.336 285.736,22.858 285.736,33.224C285.736,43.59 293.309,51.112 303.771,51.112C314.247,51.112 321.865,43.59 321.865,33.231C321.865,22.858 314.24,15.336 303.771,15.336Z" fill="#191825" fill-opacity="0.5"/>
</g>
<g mask="url(#mask_0_1156_871)">
<path d="M218.214,41.224C212.829,41.224 210.921,36.531 210.921,32.132C210.921,30.187 211.414,23.874 217.713,23.874C220.837,23.874 224.999,24.772 224.999,32.449C224.992,39.706 221.301,41.224 218.214,41.224ZM230.105,15.961C228.234,15.961 226.797,16.705 226.075,18.068L225.81,18.599L225.353,18.193C223.762,16.816 220.911,15.188 216.291,15.188C207.082,15.188 200.886,22.098 200.886,32.398C200.886,42.682 207.303,49.865 216.483,49.865C219.614,49.865 222.097,49.129 224.056,47.64L224.808,47.073L224.808,48.031C224.808,52.65 221.824,55.192 216.417,55.192C213.779,55.192 211.392,54.551 209.793,53.969C207.708,53.336 206.478,53.866 205.638,55.951L204.85,57.881L203.745,60.703L204.43,61.064C207.893,62.906 212.401,63.996 216.468,63.996C224.852,63.996 234.643,59.708 234.643,47.626L234.673,15.939L230.105,15.939Z" fill="#191825" fill-opacity="0.5"/>
</g>
</svg>
