<svg width="378" height="64" viewBox="0 0 378 64" fill="none" xmlns="http://www.w3.org/2000/svg" xmlns:xlink="http://www.w3.org/1999/xlink">
<mask id="mask_0_1156_882" style="mask-type:alpha" maskUnits="userSpaceOnUse" x="0.185547" y="0" width="188.603668" height="32">
</mask>
<mask id="mask_0_1156_887" style="mask-type:alpha" maskUnits="userSpaceOnUse" x="0.185547" y="0" width="188.603668" height="32">
</mask>
<g mask="url(#mask_0_1156_882)">
<path d="M17.374,42.351L9.351,42.343L9.351,32.766C9.351,30.71 10.146,29.657 11.892,29.406L17.359,29.406C21.256,29.406 23.776,31.867 23.791,35.845C23.791,39.934 21.33,42.351 17.374,42.351ZM9.351,16.506L9.351,13.986C9.351,11.776 10.279,10.73 12.334,10.598L16.438,10.598C19.952,10.598 22.059,12.705 22.059,16.226C22.059,18.915 20.615,22.046 16.563,22.046L9.351,22.046L9.351,16.506ZM27.599,26.069L26.155,25.251L27.415,24.168C28.896,22.908 31.349,20.057 31.349,15.143C31.349,7.621 25.522,2.773 16.497,2.773L5.033,2.773C2.359,2.869 0.215,5.057 0.186,7.732L0.186,50.403L16.71,50.403C26.745,50.403 33.213,44.944 33.213,36.486C33.213,31.948 31.114,28.051 27.599,26.069Z" fill="#191825" fill-opacity="0.5"/>
</g>
<g mask="url(#mask_0_1156_887)">
<path d="M365.848,15.375C361.737,15.382 357.84,17.275 355.276,20.502L354.562,21.401L354.002,20.392C352.175,17.062 349.044,15.382 344.667,15.382C340.092,15.382 337.02,17.931 335.591,19.456L334.663,20.465L334.302,19.132C333.786,17.216 332.077,16.163 329.498,16.163L325.358,16.163L325.313,50.568L334.714,50.568L334.714,35.377C334.714,34.043 334.876,32.732 335.208,31.354C336.107,27.685 338.575,23.736 342.722,24.127C345.271,24.377 346.524,26.352 346.524,30.161L346.524,50.561L355.991,50.561L355.991,35.37C355.991,33.704 356.146,32.452 356.521,31.214C357.273,27.707 359.859,24.112 363.859,24.112C366.755,24.112 367.83,25.748 367.83,30.161L367.83,45.529C367.83,48.999 369.377,50.561 372.855,50.561L377.275,50.561L377.283,28.599C377.312,19.817 373.444,15.375 365.848,15.375ZM280.292,38.619C280.262,38.648 276.217,42.921 270.891,42.921C266.036,42.921 261.137,39.945 261.137,33.299C261.137,27.56 264.938,23.545 270.383,23.545C272.151,23.545 274.155,24.179 274.471,25.239L274.516,25.416C274.928,26.927 276.306,27.965 277.86,27.958L283.01,27.965L283.01,23.457C283.01,17.511 275.459,15.367 270.368,15.367C259.494,15.367 251.611,22.933 251.611,33.358C251.611,43.776 259.413,51.342 270.169,51.342C279.503,51.342 284.572,45.205 284.624,45.153L284.889,44.822L280.807,38.051L280.292,38.619Z" fill="#191825" fill-opacity="0.5"/>
</g>
</svg>
