<svg width="348" height="64" viewBox="0 0 348 64" fill="none" xmlns="http://www.w3.org/2000/svg" xmlns:xlink="http://www.w3.org/1999/xlink">
<path d="M200.482,62.28L227.091,2.063C227.511,1.149 227.017,0.364 225.995,0.364L207.353,0.364C206.807,0.395 206.281,0.57 205.825,0.872C205.369,1.174 205.001,1.591 204.759,2.082L178.479,62.28C178.095,63.212 178.589,63.98 179.594,63.98L197.887,63.98C198.911,63.98 200.08,63.212 200.482,62.28ZM295.897,46.07L337.199,0.382L288.897,0.382L277.969,17.981L296.921,17.981L254.943,63.998L306.059,63.998L325.101,46.07L295.897,46.07ZM119.139,0.364L87.158,0.364C86.21,0.419 85.293,0.723 84.5,1.246C83.708,1.769 83.067,2.492 82.644,3.343L57.479,61.019C56.748,62.664 57.643,63.998 59.434,63.998L75.279,63.998C77.07,63.998 79.117,62.664 79.811,61.037L86.993,44.681L94.431,44.681C96.752,44.535 97.739,45.394 96.46,48.08L90.941,61.019C90.246,62.664 91.123,63.998 92.914,63.998L108.759,63.998C109.711,63.948 110.632,63.646 111.429,63.122C112.225,62.599 112.868,61.873 113.291,61.019L120.492,44.37C122.758,38.961 119.487,34.776 114.735,34.557C118.938,33.04 122.813,28.855 124.549,25.054L128.277,16.281C132.773,6.084 129.575,0.236 119.139,0.382M109.819,18.566L105.872,27.247C104.958,29.33 103.642,29.494 102.326,29.44L93.426,29.44L99.384,15.916L107.918,15.916C110.002,16.044 110.532,16.793 109.819,18.566ZM181.385,0.345L147.503,0.345C146.824,0.381 146.167,0.596 145.599,0.968C145.03,1.341 144.571,1.857 144.268,2.465L118.335,61.86C117.842,63.029 118.445,63.961 119.724,63.961L156,63.961C167.496,63.797 174.093,61.257 179.338,49.085L183.066,40.971C185.99,34.027 183.121,31.011 177.638,30.134C182.207,28.727 185.643,24.432 187.123,20.649L190.157,14.216C193.885,5.627 190.778,0.236 181.366,0.345M164.754,40.185L162.452,44.809C161.3,48.025 159.29,48.903 156.457,48.939L145.858,48.939L150.938,36.969L161.538,36.969C164.535,37.188 165.705,37.919 164.754,40.185ZM170.84,18.876L169.25,22.532L169.012,23.007C168.748,23.769 168.24,24.423 167.565,24.866C166.891,25.309 166.089,25.516 165.284,25.456L156.092,25.456L160.295,15.77L169.67,15.77C171.352,15.879 171.626,16.976 170.84,18.876ZM232.957,0.364L225.081,17.981L236.319,17.981C237.087,17.981 237.453,18.529 237.143,19.242L217.497,62.737C217.167,63.431 217.551,63.998 218.319,63.998L238.331,63.998C239.097,63.998 239.975,63.431 240.285,62.719L259.145,19.242C259.327,18.876 259.601,18.565 259.941,18.34C260.281,18.116 260.675,17.985 261.083,17.963L272.615,17.963L283.471,0.364L232.957,0.364ZM66.927,22.038L69.413,16.61C74.42,5.17 71.112,0.254 61.28,0.382L37.614,0.382C27.873,0.254 19.759,5.737 15.263,15.934L7.953,36.585L1.045,36.585L14.258,54.422L36.097,36.585L30.541,36.585L36.956,21.691C37.997,19.242 39.788,18.072 41.707,17.981L45.435,17.981C46.313,18.018 46.916,18.292 47.263,18.675L58.849,8.935L66.927,22.038Z" fill="#191825" fill-opacity="0.5"/>
<path d="M13.765,59.665L4.042,47.348L3.531,48.444C-0.983,58.715 -0.234,63.832 9.507,63.978L32.862,63.978C42.53,63.832 50.991,58.715 55.524,48.444L62.468,32.527L68.682,32.527L58.082,14.672L36.426,32.527L42.365,32.527L37.979,42.669C36.919,44.826 35.311,45.996 33.593,46.069L30.487,46.069L13.765,59.665Z" fill="#191825" fill-opacity="0.5"/>
<path d="M344.893,0C345.752,0 346.483,0.311 347.086,0.914C347.689,1.517 348,2.248 348,3.107C348,3.948 347.689,4.679 347.086,5.3C346.483,5.921 345.752,6.214 344.893,6.214C344.484,6.22 344.079,6.142 343.701,5.985C343.324,5.828 342.983,5.595 342.7,5.3C342.097,4.679 341.786,3.948 341.786,3.107C341.786,2.266 342.097,1.499 342.7,0.914C342.984,0.62 343.325,0.388 343.702,0.231C344.079,0.073 344.484,-0.005 344.893,0ZM344.893,5.629C345.228,5.637 345.562,5.576 345.873,5.45C346.184,5.324 346.466,5.136 346.702,4.898C346.941,4.663 347.13,4.381 347.256,4.069C347.381,3.758 347.442,3.424 347.433,3.089C347.439,2.756 347.378,2.426 347.252,2.118C347.126,1.81 346.939,1.531 346.702,1.298C346.467,1.058 346.185,0.87 345.873,0.744C345.562,0.619 345.228,0.558 344.893,0.567C344.56,0.56 344.23,0.621 343.922,0.746C343.613,0.872 343.335,1.06 343.102,1.298C342.608,1.791 342.371,2.394 342.371,3.089C342.371,3.783 342.608,4.405 343.102,4.898C343.595,5.391 344.198,5.629 344.893,5.629ZM346.483,4.752L345.752,4.752L344.838,3.436L344.454,3.436L344.454,4.752L343.796,4.752L343.796,1.407L344.838,1.407C345.204,1.407 345.496,1.499 345.715,1.663C345.935,1.846 346.063,2.084 346.063,2.394C346.063,2.796 345.843,3.107 345.423,3.272L346.483,4.752ZM344.473,2.888L344.82,2.888C345.24,2.888 345.441,2.723 345.441,2.413C345.441,2.102 345.258,1.956 344.838,1.956L344.473,1.956L344.473,2.888Z" fill="#191825" fill-opacity="0.5"/>
</svg>
