<svg width="64" height="64" viewBox="0 0 64 64" fill="none" xmlns="http://www.w3.org/2000/svg" xmlns:xlink="http://www.w3.org/1999/xlink">
<path d="M32,64C49.673,64 64,49.673 64,32C64,14.327 49.673,0 32,0C14.327,0 0,14.327 0,32C0,49.673 14.327,64 32,64Z" fill="#5D50C6"/>
<path d="M41.6,16.398L22.4,16.398C19.067,16.398 16.4,19.065 16.4,22.398L16.4,41.598C16.4,44.932 19.067,47.598 22.4,47.598L41.6,47.598C44.933,47.598 47.6,44.932 47.6,41.598L47.6,22.398C47.6,19.065 44.933,16.398 41.6,16.398ZM43.333,19.998L44,19.998L44,25.332L38.667,25.332L38.667,19.998L43.333,19.998ZM27.6,28.798C28.533,27.465 30.267,26.532 32,26.532C33.733,26.532 35.467,27.465 36.4,28.798C37.067,29.732 37.467,30.798 37.467,31.998C37.467,35.065 34.933,37.465 32,37.465C29.067,37.465 26.533,35.065 26.533,31.998C26.533,30.798 26.933,29.732 27.6,28.798ZM44.533,41.598C44.533,43.198 43.2,44.532 41.6,44.532L22.4,44.532C20.8,44.532 19.467,43.198 19.467,41.598L19.467,28.798L24.133,28.798C23.733,29.732 23.467,30.932 23.467,31.998C23.467,36.665 27.333,40.532 32,40.532C36.667,40.532 40.533,36.665 40.533,31.998C40.533,30.932 40.267,29.732 39.867,28.798L44.533,28.798L44.533,41.598Z" fill="#FFFFFF"/>
</svg>
