<svg width="64" height="64" viewBox="0 0 64 64" fill="none" xmlns="http://www.w3.org/2000/svg" xmlns:xlink="http://www.w3.org/1999/xlink">
<path d="M32,64C49.673,64 64,49.673 64,32C64,14.327 49.673,0 32,0C14.327,0 0,14.327 0,32C0,49.673 14.327,64 32,64Z" fill="#5D50C6"/>
<path d="M51.601,23.001C50.23,23.609 48.755,24.02 47.208,24.204C48.787,23.258 49.999,21.76 50.572,19.973C49.094,20.85 47.456,21.486 45.714,21.829C44.319,20.343 42.331,19.414 40.13,19.414C35.906,19.414 32.481,22.84 32.481,27.063C32.481,27.662 32.549,28.246 32.68,28.806C26.323,28.487 20.687,25.442 16.914,20.813C16.256,21.943 15.878,23.258 15.878,24.659C15.878,27.312 17.229,29.654 19.281,31.026C18.027,30.986 16.847,30.642 15.816,30.068C15.816,30.101 15.816,30.133 15.816,30.165C15.816,33.871 18.454,36.962 21.952,37.664C21.311,37.84 20.634,37.933 19.937,37.933C19.443,37.933 18.965,37.886 18.498,37.797C19.471,40.835 22.295,43.046 25.643,43.109C23.025,45.16 19.727,46.383 16.143,46.383C15.527,46.383 14.916,46.347 14.319,46.276C17.702,48.447 21.724,49.712 26.043,49.712C40.112,49.712 47.806,38.057 47.806,27.949C47.806,27.617 47.799,27.287 47.784,26.96C49.28,25.882 50.576,24.535 51.601,23.001Z" fill="#F1F2F2"/>
</svg>
