<svg width="228" height="64" viewBox="0 0 228 64" fill="none" xmlns="http://www.w3.org/2000/svg" xmlns:xlink="http://www.w3.org/1999/xlink">
<path d="M109.541,50.077L102.511,50.077C102.467,50.077 102.467,50.077 102.444,50.054L96.393,42.668L90.342,50.054C90.32,50.077 90.298,50.077 90.276,50.077L84.647,50.077C84.603,50.077 84.58,50.054 84.558,50.032C84.558,50.01 84.558,49.965 84.58,49.943L93.501,38.998L84.692,28.164C84.669,28.119 84.669,28.097 84.669,28.052C84.692,28.03 84.714,28.008 84.736,28.008L91.766,28.008C91.788,28.008 91.811,28.03 91.833,28.052L97.15,34.637L102.556,28.052C102.578,28.03 102.6,28.008 102.622,28.008L108.34,28.008C108.362,28.008 108.407,28.03 108.429,28.052C108.451,28.097 108.429,28.119 108.407,28.164L100.064,38.197L109.63,49.943C109.652,49.965 109.652,50.01 109.652,50.032C109.608,50.077 109.586,50.077 109.541,50.077Z" fill="#191825" fill-opacity="0.5"/>
<path d="M147.561,31.877C144.446,31.877 142.333,33.768 141.71,37.038L152.3,37.038L152.3,36.816C152.3,34.213 150.364,31.877 147.561,31.877ZM157.75,40.42C157.728,40.442 157.706,40.464 157.683,40.464L141.599,40.464C141.933,44.201 144.357,46.337 148.295,46.337C150.72,46.337 153.301,45.514 156.927,43.579C156.994,43.534 157.06,43.601 157.06,43.668L157.06,48.606C157.06,48.651 157.038,48.673 157.016,48.673C153.634,50.097 150.231,51.076 147.561,51.076C140.642,51.076 135.615,46.026 135.615,39.085C135.615,32.144 140.642,27.094 147.561,27.094C153.879,27.094 157.928,31.343 157.928,37.194C157.928,38.15 157.772,40.353 157.75,40.42Z" fill="#191825" fill-opacity="0.5"/>
<path d="M190.408,23.422C188.428,23.422 186.826,21.843 186.826,19.907C186.826,17.905 188.428,16.281 190.408,16.281C192.388,16.281 193.99,17.905 193.99,19.907C193.99,21.843 192.388,23.422 190.408,23.422ZM187.516,50.074C187.449,50.074 187.427,50.052 187.427,49.985L187.427,28.072C187.427,28.028 187.449,27.983 187.494,27.983L193.3,27.983C193.344,27.983 193.367,28.028 193.367,28.072L193.367,49.985C193.367,50.052 193.322,50.074 193.278,50.074L187.516,50.074Z" fill="#191825" fill-opacity="0.5"/>
<path d="M120.175,46.782C119.129,46.782 118.061,46.626 116.816,46.315L116.838,32.255C118.284,31.788 119.53,31.588 120.776,31.588C124.802,31.588 127.494,34.546 127.494,38.973C127.494,43.712 124.624,46.782 120.175,46.782ZM121.754,27.094C120.108,27.094 118.462,27.383 116.727,27.984L110.943,27.984C110.898,27.984 110.854,28.028 110.854,28.073L110.854,64.001C112.589,63.756 114.724,63.133 116.816,61.665L116.816,50.742C118.239,50.942 119.418,51.076 120.553,51.076C128.473,51.076 133.59,46.337 133.59,38.996C133.59,31.988 128.718,27.094 121.754,27.094Z" fill="#191825" fill-opacity="0.5"/>
<path d="M176.949,44.954C175.147,45.911 173.523,46.356 172.01,46.356C168.428,46.356 166.27,43.82 166.27,39.57C166.27,34.676 169.007,31.495 173.256,31.495C174.435,31.495 175.569,31.784 176.949,32.407L176.949,44.954ZM176.949,16.389L176.949,27.846C175.258,27.357 173.767,27.135 172.255,27.135C165.358,27.135 160.175,32.318 160.175,39.214C160.175,46.066 164.757,51.05 171.075,51.05C173.256,51.05 175.302,50.494 177.705,49.27L177.705,51.25C179.284,50.938 181.109,50.316 182.911,49.025L182.911,14.031C181.153,14.276 179.062,14.877 176.949,16.389Z" fill="#191825" fill-opacity="0.5"/>
<path d="M213.5,44.916C211.743,45.917 210.252,46.406 208.917,46.406C205.069,46.406 202.777,43.87 202.777,39.621C202.777,34.793 205.491,31.545 209.518,31.545C210.586,31.545 211.898,31.968 213.5,32.814L213.5,44.916ZM219.462,27.719C219.462,27.586 219.351,27.474 219.217,27.474L214.523,27.474C214.39,27.474 214.256,27.586 214.256,27.719L214.256,28.52L214.145,28.52C211.987,27.563 210.119,27.141 208.317,27.141C201.821,27.141 196.726,32.524 196.726,39.421C196.726,46.384 201.287,51.056 208.072,51.056C209.874,51.056 212.21,50.922 214.39,48.431L214.39,51.256C215.925,50.922 217.749,50.277 219.462,49.031L219.462,27.719Z" fill="#191825" fill-opacity="0.5"/>
<path d="M68.585,44.6L83.157,44.6C82.934,46.224 82.378,48.137 81.132,50.073L65.982,50.073C64.136,50.073 62.601,48.627 62.423,46.825C62.423,46.803 62.4,46.78 62.4,46.736L62.4,17.993C62.4,17.971 62.423,17.949 62.423,17.927C62.601,16.102 64.136,14.656 65.982,14.656L83.134,14.656C82.912,16.28 82.356,18.238 81.088,20.173L68.585,20.173L68.585,28.004L80.976,28.004C81.021,28.004 81.065,28.049 81.065,28.093L81.065,33.521C81.065,33.566 81.021,33.61 80.976,33.61L68.585,33.61L68.585,44.6Z" fill="#191825" fill-opacity="0.5"/>
<path d="M50.343,50.537C48.897,50.537 48.007,49.402 48.007,48.023C48.007,46.555 49.03,45.509 50.343,45.509C51.633,45.509 52.657,46.532 52.657,48.023C52.657,49.514 51.633,50.537 50.343,50.537ZM50.343,45.242C48.875,45.242 47.607,46.355 47.607,48.023C47.607,49.603 48.741,50.804 50.343,50.804C51.789,50.804 53.057,49.692 53.057,48.023C53.057,46.355 51.811,45.242 50.343,45.242Z" fill="#191825" fill-opacity="0.5"/>
<path d="M49.697,47.805L49.697,46.782L50.387,46.782C50.743,46.782 51.143,46.827 51.143,47.249C51.143,47.761 50.765,47.783 50.342,47.783C50.32,47.805 49.697,47.805 49.697,47.805ZM51.633,47.316C51.633,46.649 51.232,46.359 50.431,46.359L49.186,46.359L49.186,49.652L49.719,49.652L49.719,48.25L50.231,48.25L51.077,49.652L51.699,49.652L50.787,48.206C51.277,48.161 51.633,47.917 51.633,47.316Z" fill="#191825" fill-opacity="0.5"/>
<path d="M224.267,31.632C222.821,31.632 221.931,30.497 221.931,29.118C221.931,27.65 222.955,26.604 224.267,26.604C225.557,26.604 226.581,27.627 226.581,29.118C226.581,30.608 225.557,31.632 224.267,31.632ZM224.267,26.359C222.799,26.359 221.531,27.472 221.531,29.14C221.531,30.72 222.665,31.921 224.267,31.921C225.713,31.921 226.981,30.809 226.981,29.14C226.981,27.449 225.713,26.359 224.267,26.359Z" fill="#191825" fill-opacity="0.5"/>
<path d="M223.6,28.893L223.6,27.891L224.29,27.891C224.646,27.891 225.046,27.936 225.046,28.359C225.046,28.87 224.668,28.893 224.245,28.893L223.6,28.893ZM225.558,28.425C225.558,27.758 225.157,27.469 224.356,27.469L223.111,27.469L223.111,30.761L223.645,30.761L223.645,29.36L224.156,29.36L225.002,30.761L225.624,30.761L224.712,29.315C225.18,29.271 225.558,29.026 225.558,28.425Z" fill="#191825" fill-opacity="0.5"/>
<path d="M31.544,20.152L30.499,17.171L21.511,5.18L23.113,4.779L38.574,18.15L47.673,15.547C48.741,15.28 49.964,15.213 50.877,15.213C48.029,9.051 42.779,3.978 35.882,1.531C22.245,-3.341 7.228,3.8 2.379,17.46C0.866,21.687 0.532,26.047 1.155,30.185L22.935,22.621L31.544,20.152Z" fill="#191825" fill-opacity="0.5"/>
<path d="M51.855,17.57C51.054,18.082 49.875,18.772 48.719,19.15L39.597,21.753L33.524,41.285L31.945,41.797L33.235,26.892L32.523,23.799L23.98,26.247L1.378,31.519C3.18,40.195 9.32,47.781 18.285,50.963C31.945,55.835 46.939,48.694 51.811,35.034C53.902,29.183 53.769,23.043 51.855,17.57Z" fill="#191825" fill-opacity="0.5"/>
<path d="M32.501,23.779L33.213,26.871L31.922,41.776L33.502,41.265L39.575,21.732L48.696,19.129C49.853,18.751 51.032,18.084 51.833,17.55C51.544,16.749 51.233,15.97 50.877,15.192C49.942,15.192 48.741,15.236 47.673,15.525L38.574,18.128L23.113,4.758L21.511,5.158L30.476,17.149L31.522,20.13L22.913,22.6L1.133,30.164C1.2,30.608 1.289,31.076 1.378,31.521L23.958,26.204L32.501,23.779Z" fill="#FFFFFF"/>
</svg>
