<svg width="86" height="52" viewBox="0 0 86 52" fill="none" xmlns="http://www.w3.org/2000/svg" xmlns:xlink="http://www.w3.org/1999/xlink">
<path d="M45.602,36.451C49.245,46.322 60.227,51.375 70.1,47.74C79.969,44.08 85.033,33.11 81.375,23.236C77.729,13.351 66.765,8.306 56.877,11.95C46.997,15.607 41.953,26.572 45.602,36.451Z" fill="#FFFFFF"/>
<path d="M21.216,48.843C31.748,48.843 40.286,40.305 40.286,29.773C40.286,19.241 31.748,10.703 21.216,10.703C10.684,10.703 2.146,19.241 2.146,29.773C2.146,40.305 10.684,48.843 21.216,48.843Z" fill="#FFFFFF"/>
<path d="M24.468,29.568C24.468,31.511 22.889,33.104 20.946,33.104C18.994,33.104 17.418,31.514 17.418,29.568C17.418,27.628 18.994,26.055 20.946,26.055C22.889,26.058 24.468,27.628 24.468,29.568Z" fill="#191825" fill-opacity="0.5"/>
<path d="M66.965,29.568C66.965,31.511 65.392,33.104 63.449,33.104C61.491,33.104 59.921,31.514 59.921,29.568C59.921,27.628 61.491,26.055 63.449,26.055C65.395,26.058 66.965,27.628 66.965,29.568Z" fill="#191825" fill-opacity="0.5"/>
<path d="M10.467,29.574C10.467,35.355 15.17,40.049 20.951,40.049C26.719,40.049 31.418,35.355 31.418,29.574C31.418,23.806 26.716,19.109 20.951,19.109C15.173,19.115 10.467,23.809 10.467,29.574ZM14.08,29.574C14.08,25.792 17.169,22.716 20.957,22.716C24.739,22.716 27.812,25.8 27.812,29.574C27.812,33.367 24.739,36.448 20.957,36.448C17.169,36.451 14.08,33.372 14.08,29.574Z" fill="#191825" fill-opacity="0.5"/>
<path d="M52.97,29.574C52.97,35.355 57.667,40.049 63.446,40.049C69.216,40.049 73.91,35.355 73.91,29.574C73.91,23.806 69.216,19.109 63.446,19.109C57.67,19.115 52.97,23.809 52.97,29.574ZM56.583,29.574C56.583,25.792 59.664,22.716 63.454,22.716C67.236,22.716 70.306,25.8 70.306,29.574C70.306,33.367 67.236,36.448 63.454,36.448C59.658,36.451 56.583,33.372 56.583,29.574Z" fill="#191825" fill-opacity="0.5"/>
<path d="M56.143,9.947C58.352,9.134 60.611,8.738 62.842,8.676C56.764,5.956 49.884,4.578 42.261,4.578C34.698,4.578 27.716,5.987 21.641,8.586C32.636,8.803 41.575,17.415 42.346,28.269C42.532,25.778 43.142,23.315 44.219,20.982C46.588,15.822 50.828,11.907 56.143,9.947Z" fill="#FFFFFF"/>
<path d="M80.539,17.245C81.534,12.989 84.688,8.73 84.688,8.73L70.53,8.721C62.591,3.595 52.948,0.875 42.267,0.875C31.178,0.875 21.166,3.66 13.272,8.823L0,8.834C0,8.834 3.118,13.045 4.126,17.27C1.545,20.781 0.011,25.094 0.011,29.777C0.011,41.467 9.527,50.976 21.222,50.976C27.908,50.976 33.87,47.861 37.759,43.02L42.275,49.782L46.825,42.961C48.873,45.565 51.514,47.677 54.609,49.109C59.758,51.476 65.528,51.711 70.841,49.748C81.813,45.689 87.448,33.457 83.389,22.498C82.677,20.569 81.706,18.815 80.539,17.245ZM42.264,4.578C49.887,4.578 56.767,5.956 62.845,8.679C60.611,8.738 58.354,9.136 56.145,9.944C50.83,11.904 46.591,15.819 44.227,20.97C43.151,23.303 42.543,25.766 42.354,28.257C41.577,17.409 32.638,8.797 21.643,8.574C27.715,5.984 34.694,4.578 42.264,4.578ZM35.237,39.25C32.192,43.74 27.04,46.7 21.217,46.7C11.879,46.7 4.282,39.097 4.282,29.78C4.282,20.437 11.882,12.847 21.217,12.847C30.551,12.847 38.149,20.437 38.149,29.78C38.149,30.35 38.038,30.887 37.979,31.437C37.697,34.298 36.776,36.979 35.237,39.25ZM69.358,45.734C65.116,47.293 60.515,47.121 56.405,45.226C53.491,43.876 51.104,41.76 49.384,39.134C48.683,38.072 48.068,36.945 47.613,35.711C47.096,34.315 46.839,32.878 46.701,31.429C46.418,28.492 46.845,25.52 48.11,22.767C50.008,18.657 53.386,15.531 57.628,13.96C66.389,10.729 76.142,15.223 79.379,23.981C82.613,32.739 78.116,42.492 69.358,45.734Z" fill="#191825" fill-opacity="0.5"/>
</svg>
