<svg width="36" height="24" viewBox="0 0 36 24" fill="none" xmlns="http://www.w3.org/2000/svg" xmlns:xlink="http://www.w3.org/1999/xlink">
<path d="M6,10.001L33.171,10.001C34.276,10.001 35.171,10.896 35.171,12.001C35.171,13.106 34.276,14.001 33.171,14.001L6,14.001L12.485,20.486C13.266,21.267 13.266,22.534 12.485,23.315C11.704,24.096 10.438,24.096 9.657,23.315L1.171,14.829C-0.391,13.267 -0.391,10.735 1.171,9.173L9.657,0.687C10.438,-0.094 11.704,-0.094 12.485,0.687C13.266,1.468 13.266,2.735 12.485,3.516L6,10.001Z" transform="rotate(360 17.586 12.001)" fill="#FFFFFF"/>
</svg>
