<svg width="12" height="14" viewBox="0 0 12 14" fill="none" xmlns="http://www.w3.org/2000/svg" xmlns:xlink="http://www.w3.org/1999/xlink">
<path d="M9.931,2.713C11.06,3.857 11.654,5.376 11.654,7.011C11.654,8.72 11.015,10.251 9.84,11.378C8.615,12.542 7.095,13.166 5.508,13.166C3.85,13.166 2.325,12.513 1.138,11.288C0.006,10.113 -0.635,8.61 -0.635,7.006C-0.635,5.371 0.017,3.786 1.237,2.583C2.381,1.462 3.853,0.852 5.508,0.852C7.205,0.854 8.75,1.498 9.931,2.713ZM2,3.388C1.006,4.382 0.475,5.661 0.475,7.011C0.475,8.328 0.966,9.539 1.915,10.505C2.867,11.499 4.129,12.036 5.482,12.036C6.798,12.036 8.064,11.53 9.041,10.581C10.001,9.658 10.529,8.393 10.529,7.009C10.529,5.656 10.038,4.427 9.106,3.487C8.129,2.493 6.889,1.97 5.508,1.97C4.146,1.97 2.952,2.456 2,3.388ZM5.621,3.504C7.547,3.504 8.535,4.201 8.535,5.464C8.535,6.334 8.019,7.009 7.101,7.285L8.615,10.248L6.564,10.248L5.302,7.574L4.768,7.574L4.768,10.248L2.909,10.248L2.909,3.501L5.621,3.504ZM4.754,6.475L5.4,6.475C6.228,6.475 6.626,6.184 6.626,5.605C6.626,4.944 6.208,4.673 5.302,4.673L4.754,4.673L4.754,6.475Z" fill="#191825" fill-opacity="0.5"/>
</svg>
