<svg width="206" height="64" viewBox="0 0 206 64" fill="none" xmlns="http://www.w3.org/2000/svg" xmlns:xlink="http://www.w3.org/1999/xlink">
<path d="M108.675,16.081C108.675,18.387 106.816,20.245 104.51,20.245C102.203,20.245 100.346,18.387 100.346,16.081C100.346,13.774 102.14,11.917 104.51,11.917C106.881,11.981 108.675,13.839 108.675,16.081ZM91.505,24.474L91.505,25.499C91.505,25.499 89.52,22.935 85.291,22.935C78.309,22.935 72.863,28.253 72.863,35.62C72.863,42.923 78.245,48.304 85.291,48.304C89.584,48.304 91.505,45.678 91.505,45.678L91.505,46.766C91.505,47.279 91.89,47.662 92.402,47.662L97.591,47.662L97.591,23.574L92.402,23.574C91.89,23.576 91.505,24.025 91.505,24.474ZM91.505,39.912C90.545,41.322 88.623,42.539 86.317,42.539C82.217,42.539 79.077,39.977 79.077,35.62C79.077,31.263 82.217,28.701 86.317,28.701C88.559,28.701 90.609,29.982 91.505,31.327L91.505,39.912ZM101.435,23.576L107.585,23.576L107.585,47.664L101.435,47.664L101.435,23.576ZM193.302,22.935C189.074,22.935 187.087,25.498 187.087,25.498L187.087,11.981L180.937,11.981L180.937,47.664L186.127,47.664C186.64,47.664 187.023,47.216 187.023,46.767L187.023,45.678C187.023,45.678 189.01,48.305 193.237,48.305C200.22,48.305 205.665,42.925 205.665,35.622C205.665,28.318 200.22,22.935 193.302,22.935ZM192.277,42.475C189.906,42.475 188.048,41.259 187.087,39.848L187.087,31.263C188.048,29.982 190.098,28.637 192.277,28.637C196.377,28.637 199.516,31.199 199.516,35.556C199.516,39.912 196.377,42.475 192.277,42.475ZM177.735,33.379L177.735,47.728L171.584,47.728L171.584,34.083C171.584,30.111 170.303,28.509 166.846,28.509C164.988,28.509 163.066,29.47 161.847,30.88L161.847,47.665L155.698,47.665L155.698,23.576L160.565,23.576C161.078,23.576 161.463,24.025 161.463,24.474L161.463,25.499C163.257,23.64 165.626,22.935 167.996,22.935C170.687,22.935 172.93,23.705 174.724,25.242C176.901,27.036 177.735,29.342 177.735,33.379ZM140.769,22.935C136.542,22.935 134.556,25.498 134.556,25.498L134.556,11.981L128.406,11.981L128.406,47.664L133.594,47.664C134.107,47.664 134.492,47.216 134.492,46.767L134.492,45.678C134.492,45.678 136.478,48.305 140.705,48.305C147.689,48.305 153.134,42.925 153.134,35.622C153.198,28.318 147.753,22.935 140.769,22.935ZM139.744,42.475C137.374,42.475 135.517,41.259 134.556,39.848L134.556,31.263C135.517,29.982 137.567,28.637 139.744,28.637C143.845,28.637 146.984,31.199 146.984,35.556C146.984,39.912 143.845,42.475 139.744,42.475ZM123.088,22.935C124.946,22.935 125.907,23.256 125.907,23.256L125.907,28.957C125.907,28.957 120.782,27.227 117.579,30.879L117.579,47.728L111.428,47.728L111.428,23.576L116.618,23.576C117.131,23.576 117.514,24.024 117.514,24.473L117.514,25.498C118.669,24.152 121.167,22.935 123.088,22.935ZM59.218,45.486C58.898,44.717 58.578,43.885 58.258,43.179C57.744,42.027 57.232,40.937 56.784,39.912L56.72,39.848C52.299,30.238 47.56,20.501 42.562,10.893L42.37,10.507C41.844,9.511 41.332,8.507 40.833,7.496C40.192,6.342 39.552,5.126 38.527,3.972C36.477,1.41 33.53,0 30.391,0C27.188,0 24.305,1.41 22.192,3.844C21.231,4.996 20.525,6.214 19.885,7.368C19.385,8.377 18.873,9.381 18.349,10.379L18.156,10.764C13.223,20.373 8.419,30.11 3.998,39.72L3.934,39.847C3.486,40.873 2.972,41.962 2.46,43.114C2.14,43.819 1.82,44.588 1.5,45.421C0.667,47.79 0.41,50.033 0.731,52.34C1.436,57.145 4.638,61.18 9.059,62.975C10.725,63.68 12.455,64 14.248,64C14.761,64 15.401,63.936 15.914,63.871C18.029,63.615 20.207,62.911 22.321,61.694C24.948,60.22 27.446,58.107 30.265,55.032C33.083,58.107 35.646,60.22 38.208,61.694C40.323,62.911 42.501,63.615 44.614,63.871C45.127,63.937 45.768,64 46.281,64C48.075,64 49.868,63.68 51.469,62.975C55.954,61.18 59.093,57.081 59.798,52.34C60.307,50.098 60.051,47.857 59.218,45.486ZM30.327,48.817C26.867,44.461 24.624,40.361 23.856,36.902C23.536,35.428 23.472,34.147 23.664,32.994C23.792,31.969 24.177,31.071 24.69,30.303C25.907,28.574 27.957,27.484 30.327,27.484C32.699,27.484 34.812,28.51 35.966,30.303C36.478,31.071 36.862,31.969 36.992,32.994C37.183,34.148 37.119,35.492 36.799,36.902C36.028,40.297 33.785,44.397 30.327,48.817ZM55.887,51.828C55.439,55.159 53.196,58.043 50.058,59.324C48.52,59.964 46.854,60.157 45.189,59.964C43.588,59.772 41.985,59.259 40.321,58.299C38.014,57.016 35.708,55.032 33.017,52.084C37.245,46.896 39.808,42.154 40.769,37.927C41.217,35.94 41.282,34.147 41.089,32.481C40.833,30.879 40.256,29.405 39.36,28.124C37.372,25.24 34.041,23.576 30.326,23.576C26.612,23.576 23.28,25.306 21.294,28.124C20.397,29.405 19.82,30.879 19.564,32.481C19.308,34.147 19.371,36.004 19.884,37.927C20.845,42.154 23.471,46.959 27.635,52.148C25.008,55.095 22.638,57.082 20.331,58.363C18.666,59.324 17.065,59.837 15.464,60.028C13.734,60.221 12.068,59.964 10.595,59.388C7.456,58.107 5.214,55.223 4.766,51.892C4.574,50.291 4.701,48.69 5.342,46.896C5.534,46.254 5.855,45.614 6.175,44.846C6.624,43.821 7.135,42.731 7.648,41.642L7.713,41.515C12.133,31.969 16.873,22.231 21.806,12.75L21.998,12.365C22.511,11.405 23.024,10.38 23.536,9.419C24.048,8.393 24.624,7.432 25.33,6.599C26.675,5.063 28.468,4.229 30.455,4.229C32.441,4.229 34.235,5.063 35.58,6.599C36.285,7.434 36.861,8.395 37.374,9.419C37.887,10.38 38.4,11.405 38.911,12.365L39.104,12.75C43.961,22.271 48.639,31.882 53.133,41.579L53.133,41.643C53.647,42.669 54.095,43.821 54.607,44.848C54.927,45.615 55.248,46.255 55.44,46.896C55.951,48.56 56.143,50.163 55.887,51.828Z" fill="#191825" fill-opacity="0.5"/>
</svg>
