<svg width="42" height="40" viewBox="0 0 42 40" fill="none" xmlns="http://www.w3.org/2000/svg" xmlns:xlink="http://www.w3.org/1999/xlink">
<path d="M32.504,24.64C31.986,25.142 31.748,25.868 31.866,26.58L33.644,36.42C33.794,37.254 33.442,38.098 32.744,38.58C32.06,39.08 31.15,39.14 30.404,38.74L21.546,34.12C21.238,33.956 20.896,33.868 20.546,33.858L20.004,33.858C19.816,33.886 19.632,33.946 19.464,34.038L10.604,38.68C10.166,38.9 9.67,38.978 9.184,38.9C8,38.676 7.21,37.548 7.404,36.358L9.184,26.518C9.302,25.8 9.064,25.07 8.546,24.56L1.324,17.56C0.72,16.974 0.51,16.094 0.786,15.3C1.054,14.508 1.738,13.93 2.564,13.8L12.504,12.358C13.26,12.28 13.924,11.82 14.264,11.14L18.644,2.16C18.748,1.96 18.882,1.776 19.044,1.62L19.224,1.48C19.318,1.376 19.426,1.29 19.546,1.22L19.764,1.14L20.104,1L20.946,1C21.698,1.078 22.36,1.528 22.706,2.2L27.144,11.14C27.464,11.794 28.086,12.248 28.804,12.358L38.744,13.8C39.584,13.92 40.286,14.5 40.564,15.3C40.826,16.102 40.6,16.982 39.984,17.56L32.504,24.64Z" fill="#FF5722"/>
</svg>
