<svg width="28" height="36" viewBox="0 0 28 36" fill="none" xmlns="http://www.w3.org/2000/svg" xmlns:xlink="http://www.w3.org/1999/xlink">
<path d="M14.502,-0.578C10.291,-0.578 6.602,0.218 3.218,1.845L3.009,1.947L3.083,7.824L3.625,7.519C6.859,5.712 9.921,4.788 12.708,4.788C17.696,4.788 20.56,7.646 20.56,12.643C20.56,12.643 20.56,12.787 20.56,12.934C19.953,12.934 16.62,12.934 16.62,12.934C5.283,12.934 -0.953,17.04 -0.953,24.485C-0.953,30.464 3.549,34.644 9.994,34.644C14.736,34.644 18.405,32.78 21.02,29.272C21.02,30.637 21.02,34.176 21.02,34.176L27.242,34.176L27.242,13.626C27.24,4.206 22.955,-0.578 14.502,-0.578ZM20.549,19.842C20.549,25.691 17.03,29.476 11.584,29.476C8.249,29.476 5.921,27.284 5.921,24.149C5.921,20.028 9.861,17.766 17.013,17.766C17.013,17.766 19.958,17.766 20.554,17.766C20.549,18.294 20.549,19.842 20.549,19.842Z" fill="#191825" fill-opacity="0.5"/>
</svg>
