<svg width="40" height="40" viewBox="0 0 40 40" fill="none" xmlns="http://www.w3.org/2000/svg" xmlns:xlink="http://www.w3.org/1999/xlink">
<path d="M31.17,24.64C30.652,25.142 30.414,25.868 30.532,26.58L32.31,36.42C32.46,37.254 32.108,38.098 31.41,38.58C30.726,39.08 29.816,39.14 29.07,38.74L20.212,34.12C19.904,33.956 19.562,33.868 19.212,33.858L18.67,33.858C18.482,33.886 18.298,33.946 18.13,34.038L9.27,38.68C8.832,38.9 8.336,38.978 7.85,38.9C6.666,38.676 5.876,37.548 6.07,36.358L7.85,26.518C7.968,25.8 7.73,25.07 7.212,24.56L-0.01,17.56C-0.614,16.974 -0.824,16.094 -0.548,15.3C-0.28,14.508 0.404,13.93 1.23,13.8L11.17,12.358C11.926,12.28 12.59,11.82 12.93,11.14L17.31,2.16C17.414,1.96 17.548,1.776 17.71,1.62L17.89,1.48C17.984,1.376 18.092,1.29 18.212,1.22L18.43,1.14L18.77,1L19.612,1C20.364,1.078 21.026,1.528 21.372,2.2L25.81,11.14C26.13,11.794 26.752,12.248 27.47,12.358L37.41,13.8C38.25,13.92 38.952,14.5 39.23,15.3C39.492,16.102 39.266,16.982 38.65,17.56L31.17,24.64Z" fill="#FF5722"/>
</svg>
