<svg width="32" height="52" viewBox="0 0 32 52" fill="none" xmlns="http://www.w3.org/2000/svg" xmlns:xlink="http://www.w3.org/1999/xlink">
<path d="M24.485,0C24.485,0 24.485,18.932 24.485,20.824C21.946,17.294 18.413,15.424 13.874,15.424C5.449,15.424 -0.211,22.36 -0.211,32.669C-0.211,43.289 5.531,50.706 13.736,50.706C18.596,50.706 22.387,48.554 25.013,44.371C25.013,46.062 25.013,50.178 25.013,50.178L31.379,50.178L31.379,0L24.485,0ZM15.521,45.006C10.273,45.006 7.014,40.431 7.014,33.065C7.014,25.69 10.301,20.923 15.396,20.923C21.085,20.923 24.48,25.459 24.48,33.065C24.485,40.332 20.977,45.006 15.521,45.006Z" fill="#191825" fill-opacity="0.5"/>
</svg>
