<svg width="42" height="40" viewBox="0 0 42 40" fill="none" xmlns="http://www.w3.org/2000/svg" xmlns:xlink="http://www.w3.org/1999/xlink">
<path d="M31.837,24.64C31.319,25.142 31.081,25.868 31.199,26.58L32.977,36.42C33.127,37.254 32.775,38.098 32.077,38.58C31.393,39.08 30.483,39.14 29.737,38.74L20.879,34.12C20.571,33.956 20.229,33.868 19.879,33.858L19.337,33.858C19.149,33.886 18.965,33.946 18.797,34.038L9.937,38.68C9.499,38.9 9.003,38.978 8.517,38.9C7.333,38.676 6.543,37.548 6.737,36.358L8.517,26.518C8.635,25.8 8.397,25.07 7.879,24.56L0.657,17.56C0.053,16.974 -0.157,16.094 0.119,15.3C0.387,14.508 1.071,13.93 1.897,13.8L11.837,12.358C12.593,12.28 13.257,11.82 13.597,11.14L17.977,2.16C18.081,1.96 18.215,1.776 18.377,1.62L18.557,1.48C18.651,1.376 18.759,1.29 18.879,1.22L19.097,1.14L19.437,1L20.279,1C21.031,1.078 21.693,1.528 22.039,2.2L26.477,11.14C26.797,11.794 27.419,12.248 28.137,12.358L38.077,13.8C38.917,13.92 39.619,14.5 39.897,15.3C40.159,16.102 39.933,16.982 39.317,17.56L31.837,24.64Z" fill="#FF5722"/>
</svg>
