<svg width="64" height="64" viewBox="0 0 64 64" fill="none" xmlns="http://www.w3.org/2000/svg" xmlns:xlink="http://www.w3.org/1999/xlink">
<path d="M32,0C14.362,0 0,14.362 0,32C0,49.638 14.362,64 32,64C49.638,64 64,49.651 64,32C64,14.349 49.651,0 32,0ZM40.87,18.982C40.87,19.251 40.653,19.469 40.384,19.469L36.531,19.469C35.584,19.469 34.816,20.237 34.816,21.184L34.816,25.216L40.294,25.216C40.307,25.216 40.32,25.216 40.333,25.216C40.602,25.242 40.794,25.472 40.768,25.741L40.282,31.424C40.256,31.68 40.051,31.872 39.795,31.872L34.803,31.872L34.803,50.726C34.803,50.995 34.586,51.213 34.317,51.213L27.43,51.213C27.162,51.213 26.944,50.995 26.944,50.726L26.944,32.154L26.944,31.846L23.501,31.846C23.232,31.846 23.014,31.629 23.014,31.36L23.014,25.677C23.014,25.408 23.232,25.19 23.501,25.19L26.944,25.19L26.944,19.712C26.944,15.898 30.042,12.8 33.856,12.8L40.358,12.8C40.627,12.8 40.845,13.018 40.845,13.286L40.845,18.982L40.87,18.982Z" fill="#5D50C6"/>
</svg>
