<svg width="24" height="36" viewBox="0 0 24 36" fill="none" xmlns="http://www.w3.org/2000/svg" xmlns:xlink="http://www.w3.org/1999/xlink">
<path d="M-0.195,8.923C-0.195,13.699 3.086,16.215 9.147,19.181C12.969,21.059 14.966,22.166 14.966,24.813C14.966,27.527 12.514,29.281 8.707,29.281C6.015,29.281 3.027,28.524 0.067,27.069L-0.436,26.821L-0.659,32.808L-0.43,32.893C2.4,34.02 5.374,34.571 8.447,34.571C16.869,34.571 22.306,30.557 22.306,24.346C22.306,19.169 18.863,16.54 12.895,13.755C8.526,11.702 6.693,10.507 6.693,8.329C6.693,6.268 8.732,4.923 11.884,4.923C14.731,4.923 17.51,5.556 20.14,6.81L20.637,7.039L20.936,1.181L20.662,1.102C17.81,0.255 14.994,-0.172 12.283,-0.172C4.821,-0.183 -0.195,3.477 -0.195,8.923Z" fill="#191825" fill-opacity="0.5"/>
</svg>
