<svg width="24" height="46" viewBox="0 0 24 46" fill="none" xmlns="http://www.w3.org/2000/svg" xmlns:xlink="http://www.w3.org/1999/xlink">
<path d="M13.704,-0.027L7.496,2.117C7.496,2.117 7.496,9.551 7.496,10.217C6.847,10.217 0.616,10.217 0.616,10.217L0.616,15.649C0.616,15.649 6.655,15.649 7.31,15.649C7.31,16.355 7.31,33.086 7.31,33.086C7.31,41.373 10.131,44.773 17.071,44.773C18.831,44.773 20.511,44.556 22.197,44.096L22.471,44.028L22.395,38.396L21.92,38.577C20.556,39.049 19.489,39.28 18.664,39.28C15.405,39.28 14.196,37.447 14.196,32.499C14.196,32.499 14.196,16.352 14.196,15.657C14.857,15.657 22.135,15.657 22.135,15.657L22.135,10.217C22.135,10.217 14.859,10.217 14.196,10.217C14.196,9.545 14.196,-0.188 14.196,-0.188L13.704,-0.027Z" fill="#191825" fill-opacity="0.5"/>
</svg>
