<svg width="80" height="80" viewBox="0 0 80 80" fill="none" xmlns="http://www.w3.org/2000/svg" xmlns:xlink="http://www.w3.org/1999/xlink">
<path d="M17.105,7.196C14.244,9.196 11.657,11.562 9.411,14.225C18.589,13.373 30.25,14.764 43.789,21.533C58.246,28.762 69.888,29.006 77.99,27.443C77.254,25.218 76.329,23.078 75.233,21.045C65.958,22.023 54.068,20.728 40.211,13.8C31.412,9.4 23.656,7.588 17.105,7.196ZM69.815,13.333C62.491,5.15 51.847,0 40,0C36.521,0 33.145,0.444 29.927,1.279C34.286,2.468 38.916,4.208 43.789,6.645C53.934,11.717 62.693,13.35 69.815,13.333ZM79.722,35.256C69.934,37.189 56.418,36.792 40.211,28.689C25.06,21.113 13.001,21.209 4.868,23.016C4.448,23.109 4.038,23.207 3.638,23.309C2.573,25.625 1.723,28.06 1.113,30.589C1.765,30.415 2.438,30.25 3.132,30.095C12.999,27.903 26.94,27.998 43.789,36.422C58.94,43.998 70.999,43.902 79.132,42.095C79.411,42.033 79.686,41.969 79.956,41.903C79.985,41.273 80,40.638 80,40C80,38.395 79.906,36.812 79.722,35.256ZM78.65,50.345C68.957,52.039 55.834,51.389 40.211,43.578C25.06,36.002 13.001,36.097 4.868,37.905C3.063,38.306 1.438,38.794 0.006,39.31C0.002,39.54 0,39.77 0,40C0,62.091 17.909,80 40,80C58.514,80 74.091,67.422 78.65,50.345Z" clip-rule="evenodd" fill-rule="evenodd" fill="url(#pf_0_1156_1146)"/>
<defs>
<linearGradient id="pf_0_1156_1146" x1="72" y1="86.4" x2="8" y2="-9.6" gradientUnits="userSpaceOnUse">
<stop stop-color="#5D50C6"/>
<stop offset="1" stop-color="#F85E9F"/>
</linearGradient>
</defs>
</svg>
