<svg width="34" height="48" viewBox="0 0 34 48" fill="none" xmlns="http://www.w3.org/2000/svg" xmlns:xlink="http://www.w3.org/1999/xlink">
<path d="M18.314,-0.586C13.589,-0.586 9.615,1.651 6.965,5.721C6.965,4.094 6.965,0.205 6.965,0.205L0.67,0.205L0.67,47.996L7.561,47.996C7.561,47.996 7.561,31.307 7.561,29.471C10.047,32.852 13.611,34.71 18.048,34.71C26.753,34.71 32.376,27.567 32.376,16.538C32.376,6.297 26.722,-0.586 18.314,-0.586ZM16.39,29.14C10.942,29.14 7.559,24.483 7.559,17.001C7.559,9.779 11.129,5.114 16.653,5.114C21.977,5.114 25.16,9.537 25.16,16.931C25.163,24.458 21.799,29.14 16.39,29.14Z" fill="#191825" fill-opacity="0.5"/>
</svg>
